<svg id="visual" viewBox="0 0 900 600" width="900" height="600" xmlns="http://www.w3.org/2000/svg" xmlns:xlink="http://www.w3.org/1999/xlink" version="1.1"><rect x="0" y="0" width="900" height="600" fill="#2f2346"></rect><path d="M0 368L21.5 368.5C43 369 86 370 128.8 379.2C171.7 388.3 214.3 405.7 257.2 417.8C300 430 343 437 385.8 432.3C428.7 427.7 471.3 411.3 514.2 404.5C557 397.7 600 400.3 642.8 405.7C685.7 411 728.3 419 771.2 424.2C814 429.3 857 431.7 878.5 432.8L900 434L900 601L878.5 601C857 601 814 601 771.2 601C728.3 601 685.7 601 642.8 601C600 601 557 601 514.2 601C471.3 601 428.7 601 385.8 601C343 601 300 601 257.2 601C214.3 601 171.7 601 128.8 601C86 601 43 601 21.5 601L0 601Z" fill="#8c5de9"></path><path d="M0 469L21.5 464C43 459 86 449 128.8 444.2C171.7 439.3 214.3 439.7 257.2 435.3C300 431 343 422 385.8 418.8C428.7 415.7 471.3 418.3 514.2 428.3C557 438.3 600 455.7 642.8 453.8C685.7 452 728.3 431 771.2 429.3C814 427.7 857 445.3 878.5 454.2L900 463L900 601L878.5 601C857 601 814 601 771.2 601C728.3 601 685.7 601 642.8 601C600 601 557 601 514.2 601C471.3 601 428.7 601 385.8 601C343 601 300 601 257.2 601C214.3 601 171.7 601 128.8 601C86 601 43 601 21.5 601L0 601Z" fill="#9c70f4"></path><path d="M0 440L21.5 445C43 450 86 460 128.8 471.7C171.7 483.3 214.3 496.7 257.2 498.7C300 500.7 343 491.3 385.8 489.7C428.7 488 471.3 494 514.2 497.3C557 500.7 600 501.3 642.8 500.3C685.7 499.3 728.3 496.7 771.2 497.8C814 499 857 504 878.5 506.5L900 509L900 601L878.5 601C857 601 814 601 771.2 601C728.3 601 685.7 601 642.8 601C600 601 557 601 514.2 601C471.3 601 428.7 601 385.8 601C343 601 300 601 257.2 601C214.3 601 171.7 601 128.8 601C86 601 43 601 21.5 601L0 601Z" fill="#ac82fe"></path><path d="M0 491L21.5 498.7C43 506.3 86 521.7 128.8 529C171.7 536.3 214.3 535.7 257.2 532.2C300 528.7 343 522.3 385.8 515C428.7 507.7 471.3 499.3 514.2 500.2C557 501 600 511 642.8 516C685.7 521 728.3 521 771.2 514.3C814 507.7 857 494.3 878.5 487.7L900 481L900 601L878.5 601C857 601 814 601 771.2 601C728.3 601 685.7 601 642.8 601C600 601 557 601 514.2 601C471.3 601 428.7 601 385.8 601C343 601 300 601 257.2 601C214.3 601 171.7 601 128.8 601C86 601 43 601 21.5 601L0 601Z" fill="#b996ff"></path><path d="M0 551L21.5 548.8C43 546.7 86 542.3 128.8 543.8C171.7 545.3 214.3 552.7 257.2 551C300 549.3 343 538.7 385.8 538.8C428.7 539 471.3 550 514.2 553.5C557 557 600 553 642.8 549.3C685.7 545.7 728.3 542.3 771.2 546.3C814 550.3 857 561.7 878.5 567.3L900 573L900 601L878.5 601C857 601 814 601 771.2 601C728.3 601 685.7 601 642.8 601C600 601 557 601 514.2 601C471.3 601 428.7 601 385.8 601C343 601 300 601 257.2 601C214.3 601 171.7 601 128.8 601C86 601 43 601 21.5 601L0 601Z" fill="#c6aaff"></path></svg>