<svg id="visual" viewBox="0 0 900 600" width="900" height="600" xmlns="http://www.w3.org/2000/svg" xmlns:xlink="http://www.w3.org/1999/xlink" version="1.1"><rect x="0" y="0" width="900" height="600" fill="#000c16"></rect><path d="M0 447L21.5 439.7C43 432.3 86 417.7 128.8 419.5C171.7 421.3 214.3 439.7 257.2 435.2C300 430.7 343 403.3 385.8 402.8C428.7 402.3 471.3 428.7 514.2 426C557 423.3 600 391.7 642.8 381.2C685.7 370.7 728.3 381.3 771.2 399C814 416.7 857 441.3 878.5 453.7L900 466L900 601L878.5 601C857 601 814 601 771.2 601C728.3 601 685.7 601 642.8 601C600 601 557 601 514.2 601C471.3 601 428.7 601 385.8 601C343 601 300 601 257.2 601C214.3 601 171.7 601 128.8 601C86 601 43 601 21.5 601L0 601Z" fill="#9cf18a"></path><path d="M0 465L21.5 469.7C43 474.3 86 483.7 128.8 476.7C171.7 469.7 214.3 446.3 257.2 439C300 431.7 343 440.3 385.8 454.2C428.7 468 471.3 487 514.2 491.7C557 496.3 600 486.7 642.8 480.8C685.7 475 728.3 473 771.2 464.5C814 456 857 441 878.5 433.5L900 426L900 601L878.5 601C857 601 814 601 771.2 601C728.3 601 685.7 601 642.8 601C600 601 557 601 514.2 601C471.3 601 428.7 601 385.8 601C343 601 300 601 257.2 601C214.3 601 171.7 601 128.8 601C86 601 43 601 21.5 601L0 601Z" fill="#66e94f"></path><path d="M0 560L21.5 556.7C43 553.3 86 546.7 128.8 538.2C171.7 529.7 214.3 519.3 257.2 520.8C300 522.3 343 535.7 385.8 532.2C428.7 528.7 471.3 508.3 514.2 509.8C557 511.3 600 534.7 642.8 534.5C685.7 534.3 728.3 510.7 771.2 509C814 507.3 857 527.7 878.5 537.8L900 548L900 601L878.5 601C857 601 814 601 771.2 601C728.3 601 685.7 601 642.8 601C600 601 557 601 514.2 601C471.3 601 428.7 601 385.8 601C343 601 300 601 257.2 601C214.3 601 171.7 601 128.8 601C86 601 43 601 21.5 601L0 601Z" fill="#48af36"></path></svg>